<svg xmlns="http://www.w3.org/2000/svg" width="280" height="60" viewBox="0 0 280 60">
  <g transform="translate(4,5)">
    <path d="M0,25 C7,8 14,8 21,25 C28,42 35,42 42,25" stroke="#003876" fill="none" stroke-width="2.5" stroke-linecap="round"/>
    <path d="M0,25 C7,42 14,42 21,25 C28,8 35,8 42,25" stroke="#0068d6" fill="none" stroke-width="2.5" stroke-linecap="round"/>
    <line x1="5" y1="14" x2="5" y2="36" stroke="#c9a84c" stroke-width="1.2" opacity="0.6"/>
    <line x1="10.5" y1="10" x2="10.5" y2="40" stroke="#c9a84c" stroke-width="1.2" opacity="0.4"/>
    <line x1="16" y1="10" x2="16" y2="40" stroke="#c9a84c" stroke-width="1.2" opacity="0.6"/>
    <line x1="21" y1="14" x2="21" y2="36" stroke="#c9a84c" stroke-width="1.2" opacity="0.4"/>
    <line x1="26.5" y1="10" x2="26.5" y2="40" stroke="#c9a84c" stroke-width="1.2" opacity="0.6"/>
    <line x1="32" y1="10" x2="32" y2="40" stroke="#c9a84c" stroke-width="1.2" opacity="0.4"/>
    <line x1="37.5" y1="14" x2="37.5" y2="36" stroke="#c9a84c" stroke-width="1.2" opacity="0.6"/>
  </g>
  <text x="58" y="30" font-family="'Playfair Display',Georgia,serif" font-size="26" font-weight="700" fill="#1a2332">Hur</text>
  <text x="110" y="30" font-family="'Playfair Display',Georgia,serif" font-size="26" font-weight="700" fill="#c9a84c">Lab</text>
  <text x="58" y="46" font-family="'Inter','Helvetica Neue',sans-serif" font-size="7" fill="#888" letter-spacing="1.2">GENOME EDITING &amp; RNA BIOLOGY</text>
</svg>
